<?xml version="1.0" encoding="UTF-8" standalone="no" ?>
<!DOCTYPE svg PUBLIC "-//W3C//DTD SVG 1.1//EN" "http://www.w3.org/Graphics/SVG/1.1/DTD/svg11.dtd">
<svg xmlns="http://www.w3.org/2000/svg" xmlns:xlink="http://www.w3.org/1999/xlink" version="1.1" width="640" height="209" viewBox="0 0 640 209" xml:space="preserve">
<desc>Created with Fabric.js 3.6.3</desc>
<defs>
</defs>
<g transform="matrix(2.46 0 0 2.46 319.44 104.44)"  >
<g style=""   >
		<g transform="matrix(1 0 0 1 0 0)"  >
<rect style="stroke: none; stroke-width: 1; stroke-dasharray: none; stroke-linecap: butt; stroke-dashoffset: 0; stroke-linejoin: miter; stroke-miterlimit: 4; fill: rgb(255,255,255); fill-opacity: 0; fill-rule: nonzero; opacity: 1;"  x="-150" y="-150" rx="0" ry="0" width="300" height="300" />
</g>
		<g transform="matrix(1.9 0 0 1.9 0.15 16.59)"  >
<path style="stroke: none; stroke-width: 1; stroke-dasharray: none; stroke-linecap: butt; stroke-dashoffset: 0; stroke-linejoin: miter; stroke-miterlimit: 4; fill: rgb(0,0,0); fill-rule: nonzero; opacity: 1;"  transform=" translate(-69.59, -8.43)" d="M 7.08 13.33 L 1.57 13.33 L 1.57 13.33 Q 1.09 13.33 1.09 12.82 L 1.09 12.82 L 1.09 4.04 L 1.09 4.04 Q 1.09 3.53 1.57 3.53 L 1.57 3.53 L 2.68 3.53 L 2.68 3.53 Q 3.09 3.53 3.09 4.04 L 3.09 4.04 L 3.09 11.63 L 7.08 11.63 L 7.08 11.63 Q 7.59 11.63 7.59 12.08 L 7.59 12.08 L 7.59 12.89 L 7.59 12.89 Q 7.59 13.33 7.08 13.33 L 7.08 13.33 Z M 15.6 13.33 L 9.52 13.33 L 9.52 13.33 Q 9.04 13.33 9.04 12.82 L 9.04 12.82 L 9.04 4.04 L 9.04 4.04 Q 9.04 3.53 9.52 3.53 L 9.52 3.53 L 15.38 3.53 L 15.38 3.53 Q 15.89 3.53 15.89 3.97 L 15.89 3.97 L 15.89 4.78 L 15.89 4.78 Q 15.89 5.22 15.38 5.22 L 15.38 5.22 L 11.03 5.22 L 11.03 7.4 L 15.02 7.4 L 15.02 7.4 Q 15.53 7.4 15.53 7.84 L 15.53 7.84 L 15.53 8.65 L 15.53 8.65 Q 15.53 9.09 15.02 9.09 L 15.02 9.09 L 11.03 9.09 L 11.03 11.63 L 15.6 11.63 L 15.6 11.63 Q 16.11 11.63 16.11 12.08 L 16.11 12.08 L 16.11 12.89 L 16.11 12.89 Q 16.11 13.33 15.6 13.33 L 15.6 13.33 Z M 17.28 8.43 L 17.28 8.43 L 17.28 8.43 Q 17.28 6.07 18.51 4.68 L 18.51 4.68 L 18.51 4.68 Q 19.74 3.29 22 3.29 L 22 3.29 L 22 3.29 Q 23.36 3.29 24.13 3.64 L 24.13 3.64 L 24.13 3.64 Q 24.91 3.99 25.5 4.72 L 25.5 4.72 L 25.5 4.72 Q 25.85 5.17 25.48 5.41 L 25.48 5.41 L 24.7 5.92 L 24.7 5.92 Q 24.36 6.15 23.97 5.72 L 23.97 5.72 L 23.97 5.72 Q 23.65 5.37 23.15 5.14 L 23.15 5.14 L 23.15 5.14 Q 22.66 4.91 22.07 4.91 L 22.07 4.91 L 22.07 4.91 Q 20.63 4.91 20.02 5.81 L 20.02 5.81 L 20.02 5.81 Q 19.41 6.72 19.41 8.43 L 19.41 8.43 L 19.41 8.43 Q 19.41 10.14 20.02 11.04 L 20.02 11.04 L 20.02 11.04 Q 20.63 11.95 22.07 11.95 L 22.07 11.95 L 22.07 11.95 Q 22.76 11.95 23.27 11.81 L 23.27 11.81 L 23.27 11.81 Q 23.78 11.67 24.23 11.3 L 24.23 11.3 L 24.23 10.08 L 22.74 10.08 L 22.74 10.08 Q 22.23 10.08 22.23 9.63 L 22.23 9.63 L 22.23 8.83 L 22.23 8.83 Q 22.23 8.38 22.74 8.38 L 22.74 8.38 L 25.71 8.38 L 25.71 8.38 Q 26.22 8.38 26.22 8.83 L 26.22 8.83 L 26.22 12.3 L 26.22 12.3 Q 25.27 13 24.29 13.28 L 24.29 13.28 L 24.29 13.28 Q 23.32 13.56 22 13.56 L 22 13.56 L 22 13.56 Q 19.78 13.56 18.53 12.17 L 18.53 12.17 L 18.53 12.17 Q 17.28 10.79 17.28 8.43 Z M 28.69 13.33 L 27.6 13.33 L 27.6 13.33 Q 27.11 13.33 27.28 12.88 L 27.28 12.88 L 30.63 4.08 L 30.63 4.08 Q 30.84 3.53 31.27 3.53 L 31.27 3.53 L 32.23 3.53 L 32.23 3.53 Q 32.66 3.53 32.87 4.08 L 32.87 4.08 L 36.22 12.88 L 36.22 12.88 Q 36.39 13.33 35.9 13.33 L 35.9 13.33 L 34.82 13.33 L 34.82 13.33 Q 34.36 13.33 34.19 12.86 L 34.19 12.86 L 33.49 11.02 L 30.02 11.02 L 29.32 12.86 L 29.32 12.86 Q 29.14 13.33 28.69 13.33 L 28.69 13.33 Z M 31.49 7.15 L 30.65 9.32 L 32.85 9.32 L 32.01 7.15 L 32.01 7.15 Q 31.86 6.77 31.83 6.59 L 31.83 6.59 L 31.83 6.59 Q 31.8 6.42 31.77 6.08 L 31.77 6.08 L 31.74 6.08 L 31.74 6.08 Q 31.71 6.42 31.67 6.59 L 31.67 6.59 L 31.67 6.59 Q 31.64 6.77 31.49 7.15 L 31.49 7.15 Z M 43.59 13.33 L 38.09 13.33 L 38.09 13.33 Q 37.61 13.33 37.61 12.82 L 37.61 12.82 L 37.61 4.04 L 37.61 4.04 Q 37.61 3.53 38.09 3.53 L 38.09 3.53 L 39.2 3.53 L 39.2 3.53 Q 39.61 3.53 39.61 4.04 L 39.61 4.04 L 39.61 11.63 L 43.59 11.63 L 43.59 11.63 Q 44.11 11.63 44.11 12.08 L 44.11 12.08 L 44.11 12.89 L 44.11 12.89 Q 44.11 13.33 43.59 13.33 L 43.59 13.33 Z M 52.51 5.28 L 49.99 5.28 L 49.99 5.28 Q 49.48 5.28 49.48 4.83 L 49.48 4.83 L 49.48 3.97 L 49.48 3.97 Q 49.48 3.53 49.99 3.53 L 49.99 3.53 L 57.02 3.53 L 57.02 3.53 Q 57.53 3.53 57.53 3.97 L 57.53 3.97 L 57.53 4.83 L 57.53 4.83 Q 57.53 5.28 57.02 5.28 L 57.02 5.28 L 54.5 5.28 L 54.5 12.95 L 54.5 12.95 Q 54.5 13.33 54.16 13.33 L 54.16 13.33 L 52.85 13.33 L 52.85 13.33 Q 52.51 13.33 52.51 12.95 L 52.51 12.95 L 52.51 5.28 Z M 65.42 13.33 L 59.34 13.33 L 59.34 13.33 Q 58.86 13.33 58.86 12.82 L 58.86 12.82 L 58.86 4.04 L 58.86 4.04 Q 58.86 3.53 59.34 3.53 L 59.34 3.53 L 65.2 3.53 L 65.2 3.53 Q 65.71 3.53 65.71 3.97 L 65.71 3.97 L 65.71 4.78 L 65.71 4.78 Q 65.71 5.22 65.2 5.22 L 65.2 5.22 L 60.85 5.22 L 60.85 7.4 L 64.84 7.4 L 64.84 7.4 Q 65.35 7.4 65.35 7.84 L 65.35 7.84 L 65.35 8.65 L 65.35 8.65 Q 65.35 9.09 64.84 9.09 L 64.84 9.09 L 60.85 9.09 L 60.85 11.63 L 65.42 11.63 L 65.42 11.63 Q 65.93 11.63 65.93 12.08 L 65.93 12.08 L 65.93 12.89 L 65.93 12.89 Q 65.93 13.33 65.42 13.33 L 65.42 13.33 Z M 67.1 8.43 L 67.1 8.43 L 67.1 8.43 Q 67.1 6.07 68.3 4.68 L 68.3 4.68 L 68.3 4.68 Q 69.49 3.29 71.75 3.29 L 71.75 3.29 L 71.75 3.29 Q 73.05 3.29 73.95 3.7 L 73.95 3.7 L 73.95 3.7 Q 74.85 4.1 75.22 4.87 L 75.22 4.87 L 75.22 4.87 Q 75.47 5.37 75.14 5.55 L 75.14 5.55 L 74.32 5.99 L 74.32 5.99 Q 73.89 6.22 73.61 5.73 L 73.61 5.73 L 73.61 5.73 Q 73.43 5.41 72.95 5.16 L 72.95 5.16 L 72.95 5.16 Q 72.47 4.91 71.82 4.91 L 71.82 4.91 L 71.82 4.91 Q 70.38 4.91 69.81 5.81 L 69.81 5.81 L 69.81 5.81 Q 69.23 6.72 69.23 8.43 L 69.23 8.43 L 69.23 8.43 Q 69.23 10.14 69.81 11.04 L 69.81 11.04 L 69.81 11.04 Q 70.38 11.95 71.82 11.95 L 71.82 11.95 L 71.82 11.95 Q 72.59 11.95 73.12 11.6 L 73.12 11.6 L 73.12 11.6 Q 73.65 11.25 73.86 10.94 L 73.86 10.94 L 73.86 10.94 Q 74.19 10.42 74.57 10.68 L 74.57 10.68 L 75.39 11.22 L 75.39 11.22 Q 75.72 11.45 75.46 11.91 L 75.46 11.91 L 75.46 11.91 Q 75.06 12.59 74.09 13.08 L 74.09 13.08 L 74.09 13.08 Q 73.13 13.56 71.75 13.56 L 71.75 13.56 L 71.75 13.56 Q 69.53 13.56 68.31 12.17 L 68.31 12.17 L 68.31 12.17 Q 67.1 10.79 67.1 8.43 Z M 78.82 13.33 L 77.78 13.33 L 77.78 13.33 Q 77.3 13.33 77.3 12.82 L 77.3 12.82 L 77.3 4.04 L 77.3 4.04 Q 77.3 3.53 77.78 3.53 L 77.78 3.53 L 78.82 3.53 L 78.82 3.53 Q 79.3 3.53 79.3 4.04 L 79.3 4.04 L 79.3 7.38 L 82.97 7.38 L 82.97 4.04 L 82.97 4.04 Q 82.97 3.53 83.45 3.53 L 83.45 3.53 L 84.49 3.53 L 84.49 3.53 Q 84.97 3.53 84.97 4.04 L 84.97 4.04 L 84.97 12.82 L 84.97 12.82 Q 84.97 13.33 84.49 13.33 L 84.49 13.33 L 83.45 13.33 L 83.45 13.33 Q 82.97 13.33 82.97 12.82 L 82.97 12.82 L 82.97 9.08 L 79.3 9.08 L 79.3 12.82 L 79.3 12.82 Q 79.3 13.33 78.82 13.33 L 78.82 13.33 Z M 93.46 13.33 L 92.42 13.33 L 92.42 13.33 Q 91.94 13.33 91.94 12.82 L 91.94 12.82 L 91.94 4.04 L 91.94 4.04 Q 91.94 3.53 92.42 3.53 L 92.42 3.53 L 93.46 3.53 L 93.46 3.53 Q 93.94 3.53 93.94 4.04 L 93.94 4.04 L 93.94 7.38 L 97.62 7.38 L 97.62 4.04 L 97.62 4.04 Q 97.62 3.53 98.1 3.53 L 98.1 3.53 L 99.13 3.53 L 99.13 3.53 Q 99.61 3.53 99.61 4.04 L 99.61 4.04 L 99.61 12.82 L 99.61 12.82 Q 99.61 13.33 99.13 13.33 L 99.13 13.33 L 98.1 13.33 L 98.1 13.33 Q 97.62 13.33 97.62 12.82 L 97.62 12.82 L 97.62 9.08 L 93.94 9.08 L 93.94 12.82 L 93.94 12.82 Q 93.94 13.33 93.46 13.33 L 93.46 13.33 Z M 101.29 8.43 L 101.29 8.43 L 101.29 8.43 Q 101.29 6.07 102.51 4.68 L 102.51 4.68 L 102.51 4.68 Q 103.73 3.29 105.98 3.29 L 105.98 3.29 L 105.98 3.29 Q 108.24 3.29 109.46 4.68 L 109.46 4.68 L 109.46 4.68 Q 110.67 6.07 110.67 8.43 L 110.67 8.43 L 110.67 8.43 Q 110.67 10.79 109.46 12.17 L 109.46 12.17 L 109.46 12.17 Q 108.24 13.56 105.98 13.56 L 105.98 13.56 L 105.98 13.56 Q 103.73 13.56 102.51 12.17 L 102.51 12.17 L 102.51 12.17 Q 101.29 10.79 101.29 8.43 Z M 103.43 8.43 L 103.43 8.43 L 103.43 8.43 Q 103.43 10.14 104.04 11.04 L 104.04 11.04 L 104.04 11.04 Q 104.65 11.95 105.98 11.95 L 105.98 11.95 L 105.98 11.95 Q 107.32 11.95 107.93 11.04 L 107.93 11.04 L 107.93 11.04 Q 108.54 10.14 108.54 8.43 L 108.54 8.43 L 108.54 8.43 Q 108.54 6.72 107.93 5.81 L 107.93 5.81 L 107.93 5.81 Q 107.32 4.91 105.98 4.91 L 105.98 4.91 L 105.98 4.91 Q 104.65 4.91 104.04 5.81 L 104.04 5.81 L 104.04 5.81 Q 103.43 6.72 103.43 8.43 Z M 112.36 9.25 L 112.36 9.25 L 112.36 3.9 L 112.36 3.9 Q 112.36 3.53 112.83 3.53 L 112.83 3.53 L 113.87 3.53 L 113.87 3.53 Q 114.35 3.53 114.35 3.9 L 114.35 3.9 L 114.35 9.18 L 114.35 9.18 Q 114.35 11.03 114.9 11.49 L 114.9 11.49 L 114.9 11.49 Q 115.44 11.95 116.12 11.95 L 116.12 11.95 L 116.12 11.95 Q 116.81 11.95 117.35 11.49 L 117.35 11.49 L 117.35 11.49 Q 117.89 11.03 117.89 9.18 L 117.89 9.18 L 117.89 3.9 L 117.89 3.9 Q 117.89 3.53 118.37 3.53 L 118.37 3.53 L 119.41 3.53 L 119.41 3.53 Q 119.89 3.53 119.89 3.9 L 119.89 3.9 L 119.89 9.25 L 119.89 9.25 Q 119.89 11.64 118.88 12.6 L 118.88 12.6 L 118.88 12.6 Q 117.87 13.56 116.12 13.56 L 116.12 13.56 L 116.12 13.56 Q 114.38 13.56 113.37 12.6 L 113.37 12.6 L 113.37 12.6 Q 112.36 11.64 112.36 9.25 Z M 121.97 12.6 L 121.97 12.6 L 121.97 12.6 Q 121.55 12.28 121.77 11.95 L 121.77 11.95 L 122.29 11.16 L 122.29 11.16 Q 122.55 10.77 123.05 11.12 L 123.05 11.12 L 123.05 11.12 Q 123.44 11.38 124.06 11.67 L 124.06 11.67 L 124.06 11.67 Q 124.67 11.95 125.36 11.95 L 125.36 11.95 L 125.36 11.95 Q 125.84 11.95 126.28 11.84 L 126.28 11.84 L 126.28 11.84 Q 126.72 11.73 126.96 11.42 L 126.96 11.42 L 126.96 11.42 Q 127.19 11.1 127.19 10.67 L 127.19 10.67 L 127.19 10.67 Q 127.19 10.36 127.09 10.13 L 127.09 10.13 L 127.09 10.13 Q 126.98 9.9 126.75 9.75 L 126.75 9.75 L 126.75 9.75 Q 126.52 9.6 126.27 9.5 L 126.27 9.5 L 126.27 9.5 Q 125.84 9.32 125.19 9.14 L 125.19 9.14 L 125.19 9.14 Q 124.54 8.97 123.9 8.72 L 123.9 8.72 L 123.9 8.72 Q 123.33 8.5 122.86 8.12 L 122.86 8.12 L 122.86 8.12 Q 122.39 7.74 122.13 7.26 L 122.13 7.26 L 122.13 7.26 Q 121.87 6.78 121.87 5.98 L 121.87 5.98 L 121.87 5.98 Q 121.87 5.03 122.49 4.35 L 122.49 4.35 L 122.49 4.35 Q 123.1 3.68 123.9 3.49 L 123.9 3.49 L 123.9 3.49 Q 124.7 3.29 125.51 3.29 L 125.51 3.29 L 125.51 3.29 Q 126.32 3.29 127.18 3.54 L 127.18 3.54 L 127.18 3.54 Q 128.04 3.79 128.47 4.16 L 128.47 4.16 L 128.47 4.16 Q 128.91 4.52 128.69 4.81 L 128.69 4.81 L 128.13 5.56 L 128.13 5.56 Q 127.85 5.94 127.38 5.62 L 127.38 5.62 L 127.38 5.62 Q 127.08 5.41 126.56 5.16 L 126.56 5.16 L 126.56 5.16 Q 126.03 4.91 125.47 4.91 L 125.47 4.91 L 125.47 4.91 Q 125.06 4.91 124.73 4.98 L 124.73 4.98 L 124.73 4.98 Q 124.39 5.04 124.13 5.3 L 124.13 5.3 L 124.13 5.3 Q 123.87 5.56 123.87 5.95 L 123.87 5.95 L 123.87 5.95 Q 123.87 6.32 124.06 6.55 L 124.06 6.55 L 124.06 6.55 Q 124.25 6.77 124.48 6.89 L 124.48 6.89 L 124.48 6.89 Q 124.71 7 124.95 7.08 L 124.95 7.08 L 124.95 7.08 Q 125.69 7.31 126.27 7.5 L 126.27 7.5 L 126.27 7.5 Q 126.85 7.68 127.35 7.9 L 127.35 7.9 L 127.35 7.9 Q 128.03 8.2 128.39 8.51 L 128.39 8.51 L 128.39 8.51 Q 128.75 8.82 128.99 9.35 L 128.99 9.35 L 128.99 9.35 Q 129.23 9.88 129.23 10.62 L 129.23 10.62 L 129.23 10.62 Q 129.23 11.72 128.53 12.43 L 128.53 12.43 L 128.53 12.43 Q 127.83 13.15 126.98 13.35 L 126.98 13.35 L 126.98 13.35 Q 126.13 13.56 125.32 13.56 L 125.32 13.56 L 125.32 13.56 Q 124.13 13.56 123.39 13.33 L 123.39 13.33 L 123.39 13.33 Q 122.64 13.1 121.97 12.6 Z M 137.58 13.33 L 131.5 13.33 L 131.5 13.33 Q 131.02 13.33 131.02 12.82 L 131.02 12.82 L 131.02 4.04 L 131.02 4.04 Q 131.02 3.53 131.5 3.53 L 131.5 3.53 L 137.36 3.53 L 137.36 3.53 Q 137.87 3.53 137.87 3.97 L 137.87 3.97 L 137.87 4.78 L 137.87 4.78 Q 137.87 5.22 137.36 5.22 L 137.36 5.22 L 133.01 5.22 L 133.01 7.4 L 137 7.4 L 137 7.4 Q 137.51 7.4 137.51 7.84 L 137.51 7.84 L 137.51 8.65 L 137.51 8.65 Q 137.51 9.09 137 9.09 L 137 9.09 L 133.01 9.09 L 133.01 11.63 L 137.58 11.63 L 137.58 11.63 Q 138.09 11.63 138.09 12.08 L 138.09 12.08 L 138.09 12.89 L 138.09 12.89 Q 138.09 13.33 137.58 13.33 L 137.58 13.33 Z" stroke-linecap="round" />
</g>
		<g transform="matrix(0.97 0 0 0.97 -0.03 -26.75)"  >
<linearGradient id="SVGID_6" gradientUnits="objectBoundingBox" gradientTransform="matrix(0.91 0.42 -0.42 0.91 16 16)"  x1="0" y1="0" x2="1" y2="0">
<stop offset="0%" style="stop-color:rgb(8,199,214);stop-opacity: 1"/>
<stop offset="100%" style="stop-color:rgb(2,2,62);stop-opacity: 1"/>
</linearGradient>
<path style="stroke: none; stroke-width: 1; stroke-dasharray: none; stroke-linecap: butt; stroke-dashoffset: 0; stroke-linejoin: miter; stroke-miterlimit: 4; fill: url(#SVGID_6); fill-rule: nonzero; opacity: 1;"  transform=" translate(-16, -16)" d="M 9.382 8.675 h 13.943 v 13.943 L 32 31.293 V 0 H 0.707 z M 22.618 23.325 H 8.675 V 9.382 L 0 0.707 V 32 h 31.293 z" stroke-linecap="round" />
</g>
		<g transform="matrix(0.58 0 0 0.58 -0.66 39.27)"  >
<path style="stroke: none; stroke-width: 1; stroke-dasharray: none; stroke-linecap: butt; stroke-dashoffset: 0; stroke-linejoin: miter; stroke-miterlimit: 4; fill: rgb(0,0,0); fill-rule: nonzero; opacity: 1;"  transform=" translate(-167.11, -10.78)" d="M 8.41 5.88 L 7.42 15.68 L 5.28 15.68 L 4.37 6.38 L 4.2 6.38 L 3.29 15.68 L 1.15 15.68 L 0.15 5.88 L 1.22 5.88 L 2.16 15.18 L 2.32 15.18 L 3.21 5.88 L 5.36 5.88 L 6.24 15.18 L 6.41 15.18 L 7.35 5.88 L 8.41 5.88 Z M 23.18 12.54 L 17.58 12.54 L 17.58 12.54 Q 17.63 13.58 18.23 14.21 L 18.23 14.21 L 18.23 14.21 Q 18.83 14.84 19.91 14.84 L 19.91 14.84 L 19.91 14.84 Q 20.4 14.84 20.76 14.73 L 20.76 14.73 L 20.76 14.73 Q 21.13 14.62 21.38 14.42 L 21.38 14.42 L 21.38 14.42 Q 21.64 14.22 21.8 13.96 L 21.8 13.96 L 21.8 13.96 Q 21.97 13.71 22.06 13.41 L 22.06 13.41 L 23.1 13.69 L 23.1 13.69 Q 22.81 14.66 22.02 15.27 L 22.02 15.27 L 22.02 15.27 Q 21.22 15.88 19.88 15.88 L 19.88 15.88 L 19.88 15.88 Q 19.14 15.88 18.52 15.62 L 18.52 15.62 L 18.52 15.62 Q 17.89 15.36 17.44 14.88 L 17.44 14.88 L 17.44 14.88 Q 17 14.41 16.74 13.75 L 16.74 13.75 L 16.74 13.75 Q 16.49 13.09 16.49 12.29 L 16.49 12.29 L 16.49 11.96 L 16.49 11.96 Q 16.49 11.23 16.75 10.6 L 16.75 10.6 L 16.75 10.6 Q 17.01 9.97 17.47 9.51 L 17.47 9.51 L 17.47 9.51 Q 17.93 9.06 18.56 8.8 L 18.56 8.8 L 18.56 8.8 Q 19.18 8.54 19.91 8.54 L 19.91 8.54 L 19.91 8.54 Q 20.76 8.54 21.38 8.86 L 21.38 8.86 L 21.38 8.86 Q 22.01 9.17 22.41 9.63 L 22.41 9.63 L 22.41 9.63 Q 22.81 10.09 23 10.64 L 23 10.64 L 23 10.64 Q 23.18 11.19 23.18 11.65 L 23.18 11.65 L 23.18 12.54 Z M 19.91 9.58 L 19.91 9.58 L 19.91 9.58 Q 19.45 9.58 19.05 9.72 L 19.05 9.72 L 19.05 9.72 Q 18.65 9.87 18.35 10.14 L 18.35 10.14 L 18.35 10.14 Q 18.05 10.4 17.86 10.76 L 17.86 10.76 L 17.86 10.76 Q 17.67 11.12 17.61 11.54 L 17.61 11.54 L 22.09 11.54 L 22.09 11.54 Q 22.06 11.09 21.88 10.72 L 21.88 10.72 L 21.88 10.72 Q 21.69 10.36 21.38 10.11 L 21.38 10.11 L 21.38 10.11 Q 21.08 9.86 20.7 9.72 L 20.7 9.72 L 20.7 9.72 Q 20.31 9.58 19.91 9.58 Z M 33.19 14.62 L 33.19 15.68 L 32.1 15.68 L 32.1 5.88 L 33.19 5.88 L 33.19 9.83 L 33.36 9.83 L 33.36 9.83 Q 33.73 9.2 34.37 8.87 L 34.37 8.87 L 34.37 8.87 Q 35.01 8.54 35.77 8.54 L 35.77 8.54 L 35.77 8.54 Q 36.41 8.54 36.99 8.78 L 36.99 8.78 L 36.99 8.78 Q 37.56 9.02 38 9.46 L 38 9.46 L 38 9.46 Q 38.44 9.91 38.7 10.57 L 38.7 10.57 L 38.7 10.57 Q 38.96 11.23 38.96 12.07 L 38.96 12.07 L 38.96 12.35 L 38.96 12.35 Q 38.96 13.2 38.71 13.86 L 38.71 13.86 L 38.71 13.86 Q 38.46 14.52 38.02 14.97 L 38.02 14.97 L 38.02 14.97 Q 37.58 15.41 36.99 15.64 L 36.99 15.64 L 36.99 15.64 Q 36.4 15.88 35.74 15.88 L 35.74 15.88 L 35.74 15.88 Q 35.41 15.88 35.06 15.8 L 35.06 15.8 L 35.06 15.8 Q 34.71 15.72 34.39 15.56 L 34.39 15.56 L 34.39 15.56 Q 34.08 15.4 33.81 15.17 L 33.81 15.17 L 33.81 15.17 Q 33.54 14.94 33.36 14.62 L 33.36 14.62 L 33.19 14.62 Z M 35.52 14.84 L 35.52 14.84 L 35.52 14.84 Q 36.02 14.84 36.44 14.66 L 36.44 14.66 L 36.44 14.66 Q 36.86 14.49 37.18 14.17 L 37.18 14.17 L 37.18 14.17 Q 37.49 13.85 37.67 13.38 L 37.67 13.38 L 37.67 13.38 Q 37.84 12.92 37.84 12.35 L 37.84 12.35 L 37.84 12.07 L 37.84 12.07 Q 37.84 11.51 37.67 11.05 L 37.67 11.05 L 37.67 11.05 Q 37.49 10.6 37.18 10.27 L 37.18 10.27 L 37.18 10.27 Q 36.86 9.94 36.44 9.76 L 36.44 9.76 L 36.44 9.76 Q 36.01 9.58 35.52 9.58 L 35.52 9.58 L 35.52 9.58 Q 35.03 9.58 34.61 9.77 L 34.61 9.77 L 34.61 9.77 Q 34.19 9.95 33.87 10.29 L 33.87 10.29 L 33.87 10.29 Q 33.56 10.63 33.38 11.09 L 33.38 11.09 L 33.38 11.09 Q 33.19 11.56 33.19 12.12 L 33.19 12.12 L 33.19 12.29 L 33.19 12.29 Q 33.19 12.87 33.38 13.33 L 33.38 13.33 L 33.38 13.33 Q 33.56 13.8 33.87 14.14 L 33.87 14.14 L 33.87 14.14 Q 34.19 14.48 34.61 14.66 L 34.61 14.66 L 34.61 14.66 Q 35.03 14.84 35.52 14.84 Z M 49.36 10.53 L 49.36 10.53 L 49.36 10.53 Q 49.36 11.03 49.79 11.3 L 49.79 11.3 L 49.79 11.3 Q 50.22 11.56 51.35 11.65 L 51.35 11.65 L 51.35 11.65 Q 52.57 11.75 53.21 12.23 L 53.21 12.23 L 53.21 12.23 Q 53.84 12.71 53.84 13.64 L 53.84 13.64 L 53.84 13.72 L 53.84 13.72 Q 53.84 14.22 53.64 14.62 L 53.64 14.62 L 53.64 14.62 Q 53.44 15.02 53.08 15.3 L 53.08 15.3 L 53.08 15.3 Q 52.72 15.58 52.21 15.73 L 52.21 15.73 L 52.21 15.73 Q 51.7 15.88 51.1 15.88 L 51.1 15.88 L 51.1 15.88 Q 50.29 15.88 49.71 15.66 L 49.71 15.66 L 49.71 15.66 Q 49.13 15.44 48.74 15.08 L 48.74 15.08 L 48.74 15.08 Q 48.36 14.73 48.16 14.27 L 48.16 14.27 L 48.16 14.27 Q 47.96 13.82 47.94 13.36 L 47.94 13.36 L 48.97 13.1 L 48.97 13.1 Q 49.04 13.9 49.59 14.38 L 49.59 14.38 L 49.59 14.38 Q 50.13 14.87 51.04 14.87 L 51.04 14.87 L 51.04 14.87 Q 51.81 14.87 52.28 14.57 L 52.28 14.57 L 52.28 14.57 Q 52.75 14.27 52.75 13.72 L 52.75 13.72 L 52.75 13.72 Q 52.75 13.13 52.29 12.88 L 52.29 12.88 L 52.29 12.88 Q 51.83 12.63 50.79 12.56 L 50.79 12.56 L 50.79 12.56 Q 49.59 12.47 48.94 12 L 48.94 12 L 48.94 12 Q 48.3 11.52 48.3 10.61 L 48.3 10.61 L 48.3 10.53 L 48.3 10.53 Q 48.3 10.04 48.51 9.67 L 48.51 9.67 L 48.51 9.67 Q 48.72 9.3 49.08 9.04 L 49.08 9.04 L 49.08 9.04 Q 49.43 8.79 49.88 8.67 L 49.88 8.67 L 49.88 8.67 Q 50.33 8.54 50.82 8.54 L 50.82 8.54 L 50.82 8.54 Q 51.51 8.54 52.02 8.73 L 52.02 8.73 L 52.02 8.73 Q 52.54 8.92 52.89 9.22 L 52.89 9.22 L 52.89 9.22 Q 53.24 9.52 53.43 9.91 L 53.43 9.91 L 53.43 9.91 Q 53.62 10.3 53.68 10.7 L 53.68 10.7 L 52.64 10.95 L 52.64 10.95 Q 52.57 10.28 52.1 9.9 L 52.1 9.9 L 52.1 9.9 Q 51.63 9.52 50.88 9.52 L 50.88 9.52 L 50.88 9.52 Q 50.58 9.52 50.31 9.58 L 50.31 9.58 L 50.31 9.58 Q 50.04 9.65 49.83 9.77 L 49.83 9.77 L 49.83 9.77 Q 49.62 9.9 49.49 10.09 L 49.49 10.09 L 49.49 10.09 Q 49.36 10.28 49.36 10.53 Z M 65.65 6.66 L 65.65 6.66 L 65.65 6.66 Q 65.65 6.26 65.93 5.97 L 65.93 5.97 L 65.93 5.97 Q 66.22 5.68 66.63 5.68 L 66.63 5.68 L 66.63 5.68 Q 67.03 5.68 67.32 5.97 L 67.32 5.97 L 67.32 5.97 Q 67.61 6.26 67.61 6.66 L 67.61 6.66 L 67.61 6.66 Q 67.61 7.07 67.32 7.36 L 67.32 7.36 L 67.32 7.36 Q 67.03 7.64 66.63 7.64 L 66.63 7.64 L 66.63 7.64 Q 66.22 7.64 65.93 7.36 L 65.93 7.36 L 65.93 7.36 Q 65.65 7.07 65.65 6.66 Z M 63.66 15.68 L 63.66 14.67 L 66.09 14.67 L 66.09 9.74 L 63.91 9.74 L 63.91 8.74 L 67.19 8.74 L 67.19 14.67 L 69.45 14.67 L 69.45 15.68 L 63.66 15.68 Z M 78.82 9.74 L 78.82 8.74 L 81 8.74 L 81 5.88 L 82.1 5.88 L 82.1 8.74 L 84.78 8.74 L 84.78 9.74 L 82.1 9.74 L 82.1 14.25 L 82.1 14.25 Q 82.1 14.67 82.47 14.67 L 82.47 14.67 L 84.45 14.67 L 84.45 15.68 L 82.08 15.68 L 82.08 15.68 Q 81.61 15.68 81.31 15.37 L 81.31 15.37 L 81.31 15.37 Q 81 15.06 81 14.59 L 81 14.59 L 81 9.74 L 78.82 9.74 Z M 101.02 12.54 L 95.42 12.54 L 95.42 12.54 Q 95.47 13.58 96.07 14.21 L 96.07 14.21 L 96.07 14.21 Q 96.67 14.84 97.75 14.84 L 97.75 14.84 L 97.75 14.84 Q 98.24 14.84 98.6 14.73 L 98.6 14.73 L 98.6 14.73 Q 98.97 14.62 99.22 14.42 L 99.22 14.42 L 99.22 14.42 Q 99.48 14.22 99.64 13.96 L 99.64 13.96 L 99.64 13.96 Q 99.81 13.71 99.9 13.41 L 99.9 13.41 L 100.94 13.69 L 100.94 13.69 Q 100.65 14.66 99.86 15.27 L 99.86 15.27 L 99.86 15.27 Q 99.06 15.88 97.72 15.88 L 97.72 15.88 L 97.72 15.88 Q 96.98 15.88 96.36 15.62 L 96.36 15.62 L 96.36 15.62 Q 95.73 15.36 95.28 14.88 L 95.28 14.88 L 95.28 14.88 Q 94.84 14.41 94.58 13.75 L 94.58 13.75 L 94.58 13.75 Q 94.33 13.09 94.33 12.29 L 94.33 12.29 L 94.33 11.96 L 94.33 11.96 Q 94.33 11.23 94.59 10.6 L 94.59 10.6 L 94.59 10.6 Q 94.85 9.97 95.31 9.51 L 95.31 9.51 L 95.31 9.51 Q 95.77 9.06 96.4 8.8 L 96.4 8.8 L 96.4 8.8 Q 97.02 8.54 97.75 8.54 L 97.75 8.54 L 97.75 8.54 Q 98.6 8.54 99.22 8.86 L 99.22 8.86 L 99.22 8.86 Q 99.85 9.17 100.25 9.63 L 100.25 9.63 L 100.25 9.63 Q 100.65 10.09 100.84 10.64 L 100.84 10.64 L 100.84 10.64 Q 101.02 11.19 101.02 11.65 L 101.02 11.65 L 101.02 12.54 Z M 97.75 9.58 L 97.75 9.58 L 97.75 9.58 Q 97.29 9.58 96.89 9.72 L 96.89 9.72 L 96.89 9.72 Q 96.49 9.87 96.19 10.14 L 96.19 10.14 L 96.19 10.14 Q 95.89 10.4 95.7 10.76 L 95.7 10.76 L 95.7 10.76 Q 95.51 11.12 95.45 11.54 L 95.45 11.54 L 99.93 11.54 L 99.93 11.54 Q 99.9 11.09 99.72 10.72 L 99.72 10.72 L 99.72 10.72 Q 99.53 10.36 99.22 10.11 L 99.22 10.11 L 99.22 10.11 Q 98.92 9.86 98.54 9.72 L 98.54 9.72 L 98.54 9.72 Q 98.15 9.58 97.75 9.58 Z M 111.64 10.53 L 111.64 10.53 L 111.64 10.53 Q 111.64 11.03 112.06 11.3 L 112.06 11.3 L 112.06 11.3 Q 112.49 11.56 113.62 11.65 L 113.62 11.65 L 113.62 11.65 Q 114.84 11.75 115.48 12.23 L 115.48 12.23 L 115.48 12.23 Q 116.12 12.71 116.12 13.64 L 116.12 13.64 L 116.12 13.72 L 116.12 13.72 Q 116.12 14.22 115.91 14.62 L 115.91 14.62 L 115.91 14.62 Q 115.71 15.02 115.35 15.3 L 115.35 15.3 L 115.35 15.3 Q 115 15.58 114.48 15.73 L 114.48 15.73 L 114.48 15.73 Q 113.97 15.88 113.37 15.88 L 113.37 15.88 L 113.37 15.88 Q 112.56 15.88 111.98 15.66 L 111.98 15.66 L 111.98 15.66 Q 111.4 15.44 111.01 15.08 L 111.01 15.08 L 111.01 15.08 Q 110.63 14.73 110.43 14.27 L 110.43 14.27 L 110.43 14.27 Q 110.24 13.82 110.21 13.36 L 110.21 13.36 L 111.24 13.1 L 111.24 13.1 Q 111.31 13.9 111.86 14.38 L 111.86 14.38 L 111.86 14.38 Q 112.41 14.87 113.32 14.87 L 113.32 14.87 L 113.32 14.87 Q 114.09 14.87 114.55 14.57 L 114.55 14.57 L 114.55 14.57 Q 115.02 14.27 115.02 13.72 L 115.02 13.72 L 115.02 13.72 Q 115.02 13.13 114.56 12.88 L 114.56 12.88 L 114.56 12.88 Q 114.1 12.63 113.06 12.56 L 113.06 12.56 L 113.06 12.56 Q 111.86 12.47 111.22 12 L 111.22 12 L 111.22 12 Q 110.57 11.52 110.57 10.61 L 110.57 10.61 L 110.57 10.53 L 110.57 10.53 Q 110.57 10.04 110.78 9.67 L 110.78 9.67 L 110.78 9.67 Q 110.99 9.3 111.35 9.04 L 111.35 9.04 L 111.35 9.04 Q 111.71 8.79 112.15 8.67 L 112.15 8.67 L 112.15 8.67 Q 112.6 8.54 113.09 8.54 L 113.09 8.54 L 113.09 8.54 Q 113.78 8.54 114.3 8.73 L 114.3 8.73 L 114.3 8.73 Q 114.81 8.92 115.16 9.22 L 115.16 9.22 L 115.16 9.22 Q 115.51 9.52 115.7 9.91 L 115.7 9.91 L 115.7 9.91 Q 115.89 10.3 115.95 10.7 L 115.95 10.7 L 114.91 10.95 L 114.91 10.95 Q 114.84 10.28 114.37 9.9 L 114.37 9.9 L 114.37 9.9 Q 113.9 9.52 113.15 9.52 L 113.15 9.52 L 113.15 9.52 Q 112.85 9.52 112.58 9.58 L 112.58 9.58 L 112.58 9.58 Q 112.31 9.65 112.1 9.77 L 112.1 9.77 L 112.1 9.77 Q 111.89 9.9 111.76 10.09 L 111.76 10.09 L 111.76 10.09 Q 111.64 10.28 111.64 10.53 Z M 141.26 9.74 L 141.26 8.74 L 143.4 8.74 L 143.4 6.97 L 143.4 6.97 Q 143.4 6.5 143.7 6.19 L 143.7 6.19 L 143.7 6.19 Q 144 5.88 144.48 5.88 L 144.48 5.88 L 147.22 5.88 L 147.22 6.89 L 144.87 6.89 L 144.87 6.89 Q 144.49 6.89 144.49 7.31 L 144.49 7.31 L 144.49 8.74 L 147.39 8.74 L 147.39 9.74 L 144.49 9.74 L 144.49 15.68 L 143.4 15.68 L 143.4 9.74 L 141.26 9.74 Z M 163.45 12.12 L 163.45 12.29 L 163.45 12.29 Q 163.45 13.16 163.16 13.82 L 163.16 13.82 L 163.16 13.82 Q 162.88 14.49 162.4 14.95 L 162.4 14.95 L 162.4 14.95 Q 161.92 15.4 161.29 15.64 L 161.29 15.64 L 161.29 15.64 Q 160.65 15.88 159.96 15.88 L 159.96 15.88 L 159.96 15.88 Q 159.26 15.88 158.63 15.64 L 158.63 15.64 L 158.63 15.64 Q 158 15.4 157.53 14.95 L 157.53 14.95 L 157.53 14.95 Q 157.05 14.49 156.77 13.82 L 156.77 13.82 L 156.77 13.82 Q 156.48 13.16 156.48 12.29 L 156.48 12.29 L 156.48 12.12 L 156.48 12.12 Q 156.48 11.27 156.77 10.61 L 156.77 10.61 L 156.77 10.61 Q 157.05 9.94 157.53 9.48 L 157.53 9.48 L 157.53 9.48 Q 158.02 9.02 158.65 8.78 L 158.65 8.78 L 158.65 8.78 Q 159.28 8.54 159.96 8.54 L 159.96 8.54 L 159.96 8.54 Q 160.65 8.54 161.28 8.78 L 161.28 8.78 L 161.28 8.78 Q 161.91 9.02 162.39 9.48 L 162.39 9.48 L 162.39 9.48 Q 162.88 9.94 163.16 10.61 L 163.16 10.61 L 163.16 10.61 Q 163.45 11.27 163.45 12.12 L 163.45 12.12 Z M 159.96 14.84 L 159.96 14.84 L 159.96 14.84 Q 160.47 14.84 160.9 14.66 L 160.9 14.66 L 160.9 14.66 Q 161.32 14.49 161.64 14.15 L 161.64 14.15 L 161.64 14.15 Q 161.97 13.82 162.15 13.35 L 162.15 13.35 L 162.15 13.35 Q 162.33 12.88 162.33 12.29 L 162.33 12.29 L 162.33 12.12 L 162.33 12.12 Q 162.33 11.56 162.15 11.09 L 162.15 11.09 L 162.15 11.09 Q 161.97 10.63 161.64 10.29 L 161.64 10.29 L 161.64 10.29 Q 161.32 9.95 160.89 9.77 L 160.89 9.77 L 160.89 9.77 Q 160.45 9.58 159.96 9.58 L 159.96 9.58 L 159.96 9.58 Q 159.47 9.58 159.04 9.77 L 159.04 9.77 L 159.04 9.77 Q 158.61 9.95 158.28 10.29 L 158.28 10.29 L 158.28 10.29 Q 157.96 10.63 157.78 11.09 L 157.78 11.09 L 157.78 11.09 Q 157.6 11.56 157.6 12.12 L 157.6 12.12 L 157.6 12.29 L 157.6 12.29 Q 157.6 12.88 157.78 13.35 L 157.78 13.35 L 157.78 13.35 Q 157.96 13.82 158.28 14.15 L 158.28 14.15 L 158.28 14.15 Q 158.61 14.49 159.03 14.66 L 159.03 14.66 L 159.03 14.66 Q 159.46 14.84 159.96 14.84 Z M 172.07 9.74 L 172.07 8.74 L 174.59 8.74 L 174.59 9.66 L 174.76 9.66 L 174.76 9.66 Q 175.03 9.09 175.52 8.81 L 175.52 8.81 L 175.52 8.81 Q 176.01 8.54 176.64 8.54 L 176.64 8.54 L 176.64 8.54 Q 177.69 8.54 178.33 9.23 L 178.33 9.23 L 178.33 9.23 Q 178.98 9.91 179.02 11.23 L 179.02 11.23 L 177.87 11.4 L 177.87 11.4 Q 177.87 10.43 177.41 10 L 177.41 10 L 177.41 10 Q 176.95 9.58 176.27 9.58 L 176.27 9.58 L 176.27 9.58 Q 175.84 9.58 175.53 9.74 L 175.53 9.74 L 175.53 9.74 Q 175.21 9.91 175 10.21 L 175 10.21 L 175 10.21 Q 174.79 10.5 174.69 10.89 L 174.69 10.89 L 174.69 10.89 Q 174.59 11.28 174.59 11.73 L 174.59 11.73 L 174.59 14.67 L 176.36 14.67 L 176.36 15.68 L 171.91 15.68 L 171.91 14.67 L 173.5 14.67 L 173.5 9.74 L 172.07 9.74 Z M 203.6 15.68 L 203.6 5.88 L 204.78 5.88 L 204.78 14.59 L 209.9 14.59 L 209.9 15.68 L 203.6 15.68 Z M 224.21 14.59 L 224.21 14.5 L 224.04 14.5 L 224.04 14.5 Q 223.71 15.2 223.11 15.54 L 223.11 15.54 L 223.11 15.54 Q 222.52 15.88 221.86 15.88 L 221.86 15.88 L 221.86 15.88 Q 221.17 15.88 220.58 15.64 L 220.58 15.64 L 220.58 15.64 Q 220 15.41 219.56 14.96 L 219.56 14.96 L 219.56 14.96 Q 219.11 14.5 218.86 13.85 L 218.86 13.85 L 218.86 13.85 Q 218.61 13.19 218.61 12.32 L 218.61 12.32 L 218.61 12.1 L 218.61 12.1 Q 218.61 11.24 218.86 10.58 L 218.86 10.58 L 218.86 10.58 Q 219.11 9.93 219.56 9.47 L 219.56 9.47 L 219.56 9.47 Q 220 9.02 220.58 8.78 L 220.58 8.78 L 220.58 8.78 Q 221.17 8.54 221.83 8.54 L 221.83 8.54 L 221.83 8.54 Q 222.54 8.54 223.13 8.86 L 223.13 8.86 L 223.13 8.86 Q 223.71 9.17 224.04 9.83 L 224.04 9.83 L 224.21 9.83 L 224.21 8.74 L 225.3 8.74 L 225.3 14.25 L 225.3 14.25 Q 225.3 14.67 225.68 14.67 L 225.68 14.67 L 226.03 14.67 L 226.03 15.68 L 225.29 15.68 L 225.29 15.68 Q 224.81 15.68 224.51 15.37 L 224.51 15.37 L 224.51 15.37 Q 224.21 15.06 224.21 14.59 L 224.21 14.59 Z M 221.97 14.84 L 221.97 14.84 L 221.97 14.84 Q 222.46 14.84 222.87 14.66 L 222.87 14.66 L 222.87 14.66 Q 223.29 14.48 223.58 14.14 L 223.58 14.14 L 223.58 14.14 Q 223.87 13.8 224.04 13.33 L 224.04 13.33 L 224.04 13.33 Q 224.21 12.87 224.21 12.29 L 224.21 12.29 L 224.21 12.12 L 224.21 12.12 Q 224.21 11.56 224.04 11.09 L 224.04 11.09 L 224.04 11.09 Q 223.87 10.63 223.57 10.29 L 223.57 10.29 L 223.57 10.29 Q 223.27 9.95 222.86 9.77 L 222.86 9.77 L 222.86 9.77 Q 222.45 9.58 221.97 9.58 L 221.97 9.58 L 221.97 9.58 Q 221.48 9.58 221.07 9.76 L 221.07 9.76 L 221.07 9.76 Q 220.67 9.94 220.37 10.27 L 220.37 10.27 L 220.37 10.27 Q 220.07 10.6 219.9 11.07 L 219.9 11.07 L 219.9 11.07 Q 219.73 11.54 219.73 12.1 L 219.73 12.1 L 219.73 12.32 L 219.73 12.32 Q 219.73 13.51 220.35 14.17 L 220.35 14.17 L 220.35 14.17 Q 220.98 14.84 221.97 14.84 Z M 241.84 8.74 L 240.74 15.68 L 238.73 15.68 L 237.89 9.24 L 237.72 9.24 L 236.88 15.68 L 234.86 15.68 L 233.77 8.74 L 234.89 8.74 L 235.82 15.18 L 235.98 15.18 L 236.8 8.74 L 238.81 8.74 L 239.62 15.18 L 239.79 15.18 L 240.72 8.74 L 241.84 8.74 Z M 265.99 15.68 L 265.99 5.88 L 272.01 5.88 L 272.01 6.97 L 267.16 6.97 L 267.16 10.22 L 271.92 10.22 L 271.92 11.31 L 267.16 11.31 L 267.16 15.68 L 265.99 15.68 Z M 283.6 6.66 L 283.6 6.66 L 283.6 6.66 Q 283.6 6.26 283.89 5.97 L 283.89 5.97 L 283.89 5.97 Q 284.17 5.68 284.58 5.68 L 284.58 5.68 L 284.58 5.68 Q 284.98 5.68 285.27 5.97 L 285.27 5.97 L 285.27 5.97 Q 285.56 6.26 285.56 6.66 L 285.56 6.66 L 285.56 6.66 Q 285.56 7.07 285.27 7.36 L 285.27 7.36 L 285.27 7.36 Q 284.98 7.64 284.58 7.64 L 284.58 7.64 L 284.58 7.64 Q 284.17 7.64 283.89 7.36 L 283.89 7.36 L 283.89 7.36 Q 283.6 7.07 283.6 6.66 Z M 281.61 15.68 L 281.61 14.67 L 284.05 14.67 L 284.05 9.74 L 281.86 9.74 L 281.86 8.74 L 285.14 8.74 L 285.14 14.67 L 287.41 14.67 L 287.41 15.68 L 281.61 15.68 Z M 296.62 9.74 L 296.62 8.74 L 299.14 8.74 L 299.14 9.66 L 299.31 9.66 L 299.31 9.66 Q 299.57 9.09 300.06 8.81 L 300.06 8.81 L 300.06 8.81 Q 300.55 8.54 301.18 8.54 L 301.18 8.54 L 301.18 8.54 Q 302.23 8.54 302.88 9.23 L 302.88 9.23 L 302.88 9.23 Q 303.52 9.91 303.56 11.23 L 303.56 11.23 L 302.41 11.4 L 302.41 11.4 Q 302.41 10.43 301.95 10 L 301.95 10 L 301.95 10 Q 301.49 9.58 300.82 9.58 L 300.82 9.58 L 300.82 9.58 Q 300.38 9.58 300.07 9.74 L 300.07 9.74 L 300.07 9.74 Q 299.75 9.91 299.54 10.21 L 299.54 10.21 L 299.54 10.21 Q 299.33 10.5 299.24 10.89 L 299.24 10.89 L 299.24 10.89 Q 299.14 11.28 299.14 11.73 L 299.14 11.73 L 299.14 14.67 L 300.9 14.67 L 300.9 15.68 L 296.45 15.68 L 296.45 14.67 L 298.05 14.67 L 298.05 9.74 L 296.62 9.74 Z M 319.26 10.33 L 319.26 15.68 L 318.16 15.68 L 318.16 10.7 L 318.16 10.7 Q 318.16 10.21 317.94 9.89 L 317.94 9.89 L 317.94 9.89 Q 317.72 9.58 317.23 9.58 L 317.23 9.58 L 317.23 9.58 Q 316.76 9.58 316.48 9.92 L 316.48 9.92 L 316.48 9.92 Q 316.19 10.26 316.19 10.98 L 316.19 10.98 L 316.19 15.68 L 315.1 15.68 L 315.1 10.64 L 315.1 10.64 Q 315.1 10.18 314.85 9.88 L 314.85 9.88 L 314.85 9.88 Q 314.59 9.58 314.17 9.58 L 314.17 9.58 L 314.17 9.58 Q 313.67 9.58 313.4 9.94 L 313.4 9.94 L 313.4 9.94 Q 313.12 10.3 313.12 10.89 L 313.12 10.89 L 313.12 15.68 L 312.03 15.68 L 312.03 8.74 L 313.12 8.74 L 313.12 9.49 L 313.29 9.49 L 313.29 9.49 Q 313.47 9 313.82 8.77 L 313.82 8.77 L 313.82 8.77 Q 314.17 8.54 314.65 8.54 L 314.65 8.54 L 314.65 8.54 Q 315.15 8.54 315.48 8.81 L 315.48 8.81 L 315.48 8.81 Q 315.81 9.07 315.94 9.49 L 315.94 9.49 L 316.11 9.49 L 316.11 9.49 Q 316.58 8.54 317.62 8.54 L 317.62 8.54 L 317.62 8.54 Q 318.4 8.54 318.83 9.04 L 318.83 9.04 L 318.83 9.04 Q 319.26 9.53 319.26 10.33 L 319.26 10.33 Z M 329.59 10.53 L 329.59 10.53 L 329.59 10.53 Q 329.59 11.03 330.01 11.3 L 330.01 11.3 L 330.01 11.3 Q 330.44 11.56 331.58 11.65 L 331.58 11.65 L 331.58 11.65 Q 332.79 11.75 333.43 12.23 L 333.43 12.23 L 333.43 12.23 Q 334.07 12.71 334.07 13.64 L 334.07 13.64 L 334.07 13.72 L 334.07 13.72 Q 334.07 14.22 333.87 14.62 L 333.87 14.62 L 333.87 14.62 Q 333.66 15.02 333.31 15.3 L 333.31 15.3 L 333.31 15.3 Q 332.95 15.58 332.44 15.73 L 332.44 15.73 L 332.44 15.73 Q 331.93 15.88 331.32 15.88 L 331.32 15.88 L 331.32 15.88 Q 330.51 15.88 329.93 15.66 L 329.93 15.66 L 329.93 15.66 Q 329.35 15.44 328.96 15.08 L 328.96 15.08 L 328.96 15.08 Q 328.58 14.73 328.38 14.27 L 328.38 14.27 L 328.38 14.27 Q 328.19 13.82 328.16 13.36 L 328.16 13.36 L 329.2 13.1 L 329.2 13.1 Q 329.27 13.9 329.81 14.38 L 329.81 14.38 L 329.81 14.38 Q 330.36 14.87 331.27 14.87 L 331.27 14.87 L 331.27 14.87 Q 332.04 14.87 332.51 14.57 L 332.51 14.57 L 332.51 14.57 Q 332.98 14.27 332.98 13.72 L 332.98 13.72 L 332.98 13.72 Q 332.98 13.13 332.51 12.88 L 332.51 12.88 L 332.51 12.88 Q 332.05 12.63 331.02 12.56 L 331.02 12.56 L 331.02 12.56 Q 329.81 12.47 329.17 12 L 329.17 12 L 329.17 12 Q 328.52 11.52 328.52 10.61 L 328.52 10.61 L 328.52 10.53 L 328.52 10.53 Q 328.52 10.04 328.73 9.67 L 328.73 9.67 L 328.73 9.67 Q 328.94 9.3 329.3 9.04 L 329.3 9.04 L 329.3 9.04 Q 329.66 8.79 330.11 8.67 L 330.11 8.67 L 330.11 8.67 Q 330.55 8.54 331.04 8.54 L 331.04 8.54 L 331.04 8.54 Q 331.73 8.54 332.25 8.73 L 332.25 8.73 L 332.25 8.73 Q 332.77 8.92 333.12 9.22 L 333.12 9.22 L 333.12 9.22 Q 333.47 9.52 333.65 9.91 L 333.65 9.91 L 333.65 9.91 Q 333.84 10.3 333.9 10.7 L 333.9 10.7 L 332.86 10.95 L 332.86 10.95 Q 332.79 10.28 332.32 9.9 L 332.32 9.9 L 332.32 9.9 Q 331.86 9.52 331.1 9.52 L 331.1 9.52 L 331.1 9.52 Q 330.81 9.52 330.53 9.58 L 330.53 9.58 L 330.53 9.58 Q 330.26 9.65 330.05 9.77 L 330.05 9.77 L 330.05 9.77 Q 329.84 9.9 329.71 10.09 L 329.71 10.09 L 329.71 10.09 Q 329.59 10.28 329.59 10.53 Z" stroke-linecap="round" />
</g>
</g>
</g>
</svg>